<svg xmlns="http://www.w3.org/2000/svg" viewBox="71.5 133.5 822.5 620.5" width="100%" height="100%">

<rect x="0" y="0" width="100%" height="100%" fill="#15202B"/>
  <path d="M 148.00 162.00 L 147.00 162.00 L 147.00 163.00 L 148.00 166.00 L 151.00 176.00 L 151.00 185.00 L 152.00 194.00 L 152.00 203.00 L 152.00 208.00 L 152.00 211.00 L 152.00 212.00 L 152.00 213.00 L 152.00 212.00 L 152.00 210.00 L 151.00 207.00 L 149.00 203.00 L 147.00 198.00 L 144.00 190.00 L 143.00 183.00 L 144.00 173.00 L 149.00 167.00 L 156.00 162.00 L 169.00 157.00 L 177.00 155.00 L 183.00 157.00 L 186.00 161.00 L 187.00 167.00 L 182.00 175.00 L 176.00 180.00 L 170.00 184.00 L 164.00 186.00 L 157.00 187.00 L 155.00 187.00 L 153.00 187.00 L 153.00 188.00 L 152.00 189.00 L 154.00 190.00 L 159.00 192.00 L 164.00 193.00 L 167.00 194.00 L 172.00 197.00 L 175.00 199.00 L 178.00 202.00 L 181.00 205.00 L 184.00 207.00 L 186.00 208.00 L 186.00 209.00 L 188.00 209.00 L 190.00 208.00" stroke="#ffffff" stroke-width="3" stroke-linecap="round" stroke-linejoin="round" fill="none" />
  <path d="M 207.00 169.00 L 207.00 168.00 L 205.00 170.00 L 203.00 175.00 L 201.00 181.00 L 199.00 191.00 L 201.00 197.00 L 204.00 203.00 L 208.00 207.00 L 216.00 210.00 L 221.00 211.00 L 225.00 211.00 L 227.00 210.00 L 228.00 208.00" stroke="#ffffff" stroke-width="3" stroke-linecap="round" stroke-linejoin="round" fill="none" />
  <path d="M 194.00 193.00 L 197.00 193.00 L 202.00 193.00 L 209.00 192.00 L 216.00 192.00 L 225.00 190.00 L 227.00 189.00" stroke="#ffffff" stroke-width="3" stroke-linecap="round" stroke-linejoin="round" fill="none" />
  <path d="M 202.00 172.00 L 206.00 172.00 L 213.00 171.00 L 226.00 170.00 L 235.00 169.00 L 241.00 168.00" stroke="#ffffff" stroke-width="3" stroke-linecap="round" stroke-linejoin="round" fill="none" />
  <path d="M 239.00 215.00 L 238.00 215.00 L 239.00 213.00 L 240.00 210.00 L 242.00 206.00 L 245.00 202.00 L 249.00 192.00 L 252.00 184.00 L 255.00 179.00 L 256.00 177.00 L 257.00 178.00 L 259.00 182.00 L 262.00 188.00 L 265.00 195.00 L 269.00 206.00 L 272.00 211.00 L 274.00 214.00 L 275.00 216.00 L 274.00 215.00" stroke="#ffffff" stroke-width="3" stroke-linecap="round" stroke-linejoin="round" fill="none" />
  <path d="M 250.00 199.00 L 250.00 200.00 L 255.00 201.00 L 261.00 201.00 L 268.00 200.00 L 275.00 199.00 L 281.00 197.00" stroke="#ffffff" stroke-width="3" stroke-linecap="round" stroke-linejoin="round" fill="none" />
  <path d="M 295.00 171.00 L 295.00 172.00 L 295.00 178.00 L 298.00 190.00 L 301.00 198.00 L 303.00 205.00 L 305.00 210.00 L 306.00 215.00 L 306.00 216.00" stroke="#ffffff" stroke-width="3" stroke-linecap="round" stroke-linejoin="round" fill="none" />
  <path d="M 278.00 181.00 L 279.00 180.00 L 284.00 180.00 L 296.00 179.00 L 317.00 181.00 L 327.00 184.00 L 334.00 189.00 L 336.00 196.00 L 334.00 202.00 L 324.00 210.00 L 317.00 214.00 L 310.00 215.00 L 304.00 216.00 L 302.00 215.00" stroke="#ffffff" stroke-width="3" stroke-linecap="round" stroke-linejoin="round" fill="none" />
  <path d="M 390.00 211.00 L 390.00 210.00 L 390.00 209.00 L 390.00 208.00 L 390.00 205.00 L 391.00 202.00 L 391.00 197.00 L 391.00 192.00 L 392.00 183.00 L 393.00 178.00 L 394.00 175.00 L 395.00 175.00 L 396.00 177.00 L 399.00 182.00 L 402.00 189.00 L 404.00 196.00 L 407.00 201.00 L 411.00 207.00 L 413.00 208.00 L 416.00 205.00 L 418.00 201.00 L 418.00 194.00 L 418.00 187.00 L 419.00 179.00 L 419.00 172.00 L 420.00 170.00 L 421.00 173.00 L 423.00 179.00 L 425.00 185.00 L 430.00 193.00 L 433.00 199.00 L 435.00 203.00 L 437.00 207.00 L 438.00 208.00 L 438.00 209.00 L 438.00 208.00 L 438.00 207.00" stroke="#ffffff" stroke-width="3" stroke-linecap="round" stroke-linejoin="round" fill="none" />
  <path d="M 446.00 179.00 L 446.00 181.00 L 446.00 185.00 L 446.00 190.00 L 449.00 198.00 L 452.00 202.00 L 456.00 205.00 L 461.00 206.00 L 466.00 207.00 L 473.00 206.00 L 475.00 204.00 L 474.00 202.00" stroke="#ffffff" stroke-width="3" stroke-linecap="round" stroke-linejoin="round" fill="none" />
  <path d="M 442.00 191.00 L 444.00 191.00 L 450.00 190.00 L 456.00 190.00 L 465.00 189.00 L 470.00 187.00 L 471.00 186.00" stroke="#ffffff" stroke-width="3" stroke-linecap="round" stroke-linejoin="round" fill="none" />
  <path d="M 444.00 178.00 L 445.00 177.00 L 447.00 177.00 L 453.00 176.00 L 461.00 176.00 L 469.00 176.00 L 477.00 175.00" stroke="#ffffff" stroke-width="3" stroke-linecap="round" stroke-linejoin="round" fill="none" />
  <path d="M 529.00 169.00 L 528.00 169.00 L 528.00 170.00 L 527.00 171.00 L 526.00 175.00 L 525.00 179.00 L 524.00 184.00 L 524.00 188.00 L 525.00 191.00 L 526.00 192.00 L 527.00 192.00 L 528.00 193.00" stroke="#ffffff" stroke-width="3" stroke-linecap="round" stroke-linejoin="round" fill="none" />
  <path d="M 530.00 206.00 L 528.00 206.00 L 527.00 207.00 L 526.00 209.00 L 526.00 210.00 L 528.00 211.00 L 529.00 211.00 L 531.00 211.00 L 532.00 210.00 L 532.00 207.00 L 531.00 204.00 L 529.00 203.00 L 527.00 203.00 L 526.00 204.00 L 524.00 205.00 L 524.00 206.00 L 524.00 207.00 L 523.00 208.00" stroke="#ffffff" stroke-width="3" stroke-linecap="round" stroke-linejoin="round" fill="none" />
  <path d="M 97.00 326.00 L 96.00 326.00 L 96.00 327.00 L 95.00 328.00 L 94.00 330.00 L 94.00 332.00 L 96.00 334.00 L 99.00 336.00 L 101.00 336.00 L 102.00 336.00 L 102.00 335.00 L 103.00 333.00 L 102.00 332.00 L 100.00 331.00 L 98.00 330.00 L 97.00 330.00 L 94.00 332.00 L 93.00 335.00" stroke="#ffffff" stroke-width="3" stroke-linecap="round" stroke-linejoin="round" fill="none" />
  <path d="M 141.00 304.00 L 140.00 305.00 L 140.00 306.00 L 140.00 307.00 L 140.00 312.00 L 139.00 319.00 L 141.00 331.00 L 144.00 338.00 L 148.00 342.00 L 151.00 345.00 L 153.00 347.00 L 154.00 347.00 L 154.00 346.00 L 154.00 345.00" stroke="#ffffff" stroke-width="3" stroke-linecap="round" stroke-linejoin="round" fill="none" />
  <path d="M 128.00 333.00 L 129.00 333.00 L 137.00 333.00 L 145.00 332.00 L 153.00 331.00 L 160.00 330.00" stroke="#ffffff" stroke-width="3" stroke-linecap="round" stroke-linejoin="round" fill="none" />
  <path d="M 168.00 346.00 L 169.00 345.00 L 169.00 344.00 L 170.00 343.00 L 171.00 340.00 L 172.00 337.00 L 173.00 332.00 L 173.00 323.00 L 171.00 318.00 L 170.00 315.00 L 170.00 314.00 L 169.00 317.00 L 170.00 323.00 L 172.00 331.00 L 174.00 338.00 L 176.00 343.00 L 176.00 347.00 L 177.00 349.00 L 177.00 350.00 L 178.00 347.00 L 180.00 344.00 L 182.00 342.00 L 183.00 341.00 L 184.00 341.00 L 184.00 344.00 L 186.00 347.00 L 188.00 349.00 L 192.00 350.00 L 194.00 350.00 L 196.00 348.00 L 199.00 346.00 L 199.00 343.00 L 200.00 341.00 L 201.00 340.00 L 202.00 340.00 L 203.00 342.00 L 205.00 346.00 L 206.00 349.00 L 208.00 350.00 L 208.00 351.00 L 209.00 351.00 L 209.00 349.00 L 209.00 348.00" stroke="#ffffff" stroke-width="3" stroke-linecap="round" stroke-linejoin="round" fill="none" />
  <path d="M 204.00 328.00 L 203.00 328.00 L 204.00 328.00" stroke="#ffffff" stroke-width="3" stroke-linecap="round" stroke-linejoin="round" fill="none" />
  <path d="M 217.00 346.00 L 216.00 346.00 L 216.00 345.00 L 217.00 343.00 L 217.00 340.00 L 218.00 338.00 L 218.00 337.00 L 221.00 339.00 L 223.00 342.00 L 226.00 346.00 L 229.00 349.00 L 231.00 352.00 L 232.00 353.00 L 230.00 354.00 L 226.00 354.00" stroke="#ffffff" stroke-width="3" stroke-linecap="round" stroke-linejoin="round" fill="none" />
  <path d="M 281.00 361.00 L 282.00 360.00 L 283.00 358.00 L 284.00 356.00 L 285.00 353.00 L 286.00 349.00 L 286.00 346.00 L 287.00 344.00 L 287.00 345.00 L 288.00 346.00 L 292.00 350.00 L 295.00 353.00 L 297.00 354.00 L 299.00 354.00 L 301.00 353.00" stroke="#ffffff" stroke-width="3" stroke-linecap="round" stroke-linejoin="round" fill="none" />
  <path d="M 287.00 333.00 L 288.00 333.00" stroke="#ffffff" stroke-width="3" stroke-linecap="round" stroke-linejoin="round" fill="none" />
  <path d="M 306.00 358.00 L 306.00 357.00 L 307.00 357.00 L 308.00 356.00 L 309.00 353.00 L 311.00 350.00 L 311.00 346.00 L 311.00 343.00 L 311.00 342.00 L 312.00 342.00 L 314.00 343.00 L 317.00 346.00 L 322.00 351.00 L 323.00 353.00 L 324.00 354.00 L 323.00 355.00 L 320.00 356.00 L 318.00 355.00" stroke="#ffffff" stroke-width="3" stroke-linecap="round" stroke-linejoin="round" fill="none" />
  <path d="M 402.00 355.00 L 401.00 355.00 L 399.00 354.00 L 397.00 352.00 L 395.00 350.00 L 392.00 349.00 L 389.00 348.00 L 385.00 348.00 L 383.00 350.00 L 383.00 353.00 L 383.00 356.00 L 386.00 358.00 L 392.00 359.00 L 396.00 359.00 L 399.00 358.00 L 401.00 356.00 L 404.00 354.00 L 405.00 353.00 L 407.00 354.00 L 409.00 356.00 L 416.00 358.00 L 419.00 359.00" stroke="#ffffff" stroke-width="3" stroke-linecap="round" stroke-linejoin="round" fill="none" />
  <path d="M 465.00 358.00 L 466.00 358.00 L 466.00 357.00 L 466.00 356.00 L 467.00 353.00 L 468.00 350.00 L 468.00 347.00 L 469.00 344.00 L 470.00 344.00 L 472.00 345.00 L 476.00 347.00 L 480.00 350.00 L 485.00 356.00 L 487.00 360.00 L 487.00 362.00 L 485.00 363.00 L 479.00 363.00 L 476.00 362.00 L 474.00 360.00 L 475.00 358.00 L 477.00 357.00 L 483.00 354.00 L 487.00 353.00 L 492.00 352.00 L 496.00 350.00 L 500.00 347.00 L 502.00 347.00 L 503.00 350.00 L 505.00 352.00 L 507.00 355.00 L 509.00 358.00 L 510.00 358.00 L 511.00 358.00 L 513.00 357.00 L 514.00 354.00" stroke="#ffffff" stroke-width="3" stroke-linecap="round" stroke-linejoin="round" fill="none" />
  <path d="M 499.00 328.00 L 500.00 328.00 L 501.00 328.00 L 506.00 330.00" stroke="#ffffff" stroke-width="3" stroke-linecap="round" stroke-linejoin="round" fill="none" />
  <path d="M 522.00 362.00 L 522.00 361.00 L 521.00 358.00 L 521.00 355.00 L 521.00 352.00 L 521.00 350.00 L 522.00 349.00 L 524.00 351.00 L 527.00 354.00 L 529.00 355.00 L 531.00 356.00 L 532.00 357.00 L 533.00 356.00 L 535.00 353.00 L 537.00 351.00 L 538.00 350.00 L 539.00 350.00 L 540.00 351.00 L 541.00 354.00 L 542.00 355.00 L 542.00 356.00 L 543.00 356.00 L 546.00 355.00 L 547.00 354.00 L 548.00 352.00 L 550.00 351.00 L 552.00 350.00 L 554.00 351.00 L 555.00 353.00 L 556.00 355.00 L 558.00 357.00 L 559.00 358.00 L 562.00 359.00 L 563.00 359.00" stroke="#ffffff" stroke-width="3" stroke-linecap="round" stroke-linejoin="round" fill="none" />
  <path d="M 571.00 347.00 L 571.00 348.00 L 571.00 351.00 L 570.00 356.00 L 570.00 360.00 L 570.00 364.00 L 570.00 368.00 L 571.00 369.00 L 571.00 370.00 L 572.00 369.00 L 572.00 366.00 L 572.00 361.00 L 572.00 355.00 L 574.00 343.00 L 579.00 337.00 L 583.00 335.00 L 588.00 337.00 L 593.00 345.00 L 593.00 351.00 L 592.00 355.00 L 588.00 358.00 L 585.00 359.00 L 579.00 359.00 L 578.00 358.00 L 577.00 357.00 L 578.00 356.00 L 580.00 355.00 L 582.00 355.00 L 585.00 355.00 L 588.00 356.00 L 594.00 356.00 L 597.00 356.00 L 602.00 355.00 L 606.00 353.00 L 611.00 350.00 L 613.00 346.00 L 614.00 341.00 L 615.00 335.00 L 615.00 330.00 L 615.00 326.00 L 615.00 325.00 L 613.00 328.00 L 611.00 334.00 L 609.00 342.00 L 609.00 348.00 L 610.00 352.00 L 613.00 355.00 L 616.00 357.00 L 621.00 358.00 L 623.00 358.00 L 624.00 357.00 L 624.00 355.00 L 625.00 350.00 L 625.00 349.00 L 625.00 347.00 L 625.00 348.00 L 626.00 351.00 L 629.00 356.00 L 632.00 357.00 L 636.00 358.00 L 640.00 357.00 L 643.00 357.00" stroke="#ffffff" stroke-width="3" stroke-linecap="round" stroke-linejoin="round" fill="none" />
  <path d="M 700.00 322.00 L 699.00 321.00 L 698.00 321.00 L 694.00 322.00 L 690.00 323.00 L 683.00 326.00 L 678.00 328.00 L 676.00 329.00 L 675.00 331.00 L 678.00 333.00 L 681.00 335.00 L 686.00 337.00 L 692.00 340.00 L 696.00 343.00 L 700.00 347.00 L 700.00 350.00 L 698.00 352.00 L 693.00 353.00 L 686.00 355.00 L 683.00 355.00 L 682.00 353.00 L 683.00 349.00" stroke="#ffffff" stroke-width="3" stroke-linecap="round" stroke-linejoin="round" fill="none" />
  <path d="M 713.00 327.00 L 713.00 328.00 L 714.00 329.00 L 715.00 331.00 L 717.00 335.00 L 720.00 338.00 L 722.00 341.00 L 724.00 343.00 L 724.00 344.00 L 725.00 344.00 L 725.00 340.00 L 726.00 335.00 L 726.00 329.00 L 726.00 322.00 L 729.00 314.00 L 732.00 312.00 L 734.00 312.00 L 735.00 312.00" stroke="#ffffff" stroke-width="3" stroke-linecap="round" stroke-linejoin="round" fill="none" />
  <path d="M 752.00 320.00 L 751.00 321.00 L 749.00 322.00 L 745.00 325.00 L 742.00 332.00 L 742.00 337.00 L 743.00 342.00 L 747.00 345.00 L 753.00 347.00 L 757.00 347.00 L 759.00 346.00 L 760.00 344.00 L 759.00 341.00" stroke="#ffffff" stroke-width="3" stroke-linecap="round" stroke-linejoin="round" fill="none" />
  <path d="M 740.00 331.00 L 741.00 331.00 L 746.00 331.00 L 753.00 331.00 L 761.00 332.00 L 768.00 334.00 L 773.00 338.00 L 774.00 343.00 L 772.00 346.00 L 771.00 349.00" stroke="#ffffff" stroke-width="3" stroke-linecap="round" stroke-linejoin="round" fill="none" />
  <path d="M 186.00 419.00 L 187.00 419.00 L 189.00 419.00 L 191.00 419.00 L 197.00 419.00 L 202.00 418.00 L 204.00 417.00 L 206.00 416.00 L 206.00 415.00 L 205.00 414.00 L 201.00 414.00 L 196.00 414.00 L 187.00 417.00 L 183.00 421.00 L 181.00 424.00 L 181.00 427.00 L 186.00 430.00 L 191.00 430.00 L 197.00 430.00" stroke="#ffffff" stroke-width="3" stroke-linecap="round" stroke-linejoin="round" fill="none" />
  <path d="M 228.00 424.00 L 228.00 423.00 L 227.00 423.00 L 226.00 423.00 L 222.00 422.00 L 219.00 422.00 L 216.00 422.00 L 213.00 423.00 L 211.00 425.00 L 210.00 428.00 L 211.00 430.00 L 213.00 431.00 L 218.00 431.00 L 223.00 429.00 L 227.00 427.00 L 230.00 424.00 L 231.00 421.00 L 232.00 415.00 L 231.00 412.00 L 230.00 411.00 L 229.00 411.00 L 229.00 412.00 L 228.00 418.00 L 228.00 422.00 L 229.00 426.00 L 232.00 429.00 L 235.00 431.00 L 240.00 432.00 L 243.00 431.00 L 246.00 429.00 L 247.00 428.00 L 248.00 427.00 L 248.00 428.00 L 248.00 430.00 L 249.00 432.00 L 252.00 434.00 L 255.00 434.00 L 258.00 433.00 L 261.00 431.00" stroke="#ffffff" stroke-width="3" stroke-linecap="round" stroke-linejoin="round" fill="none" />
  <path d="M 257.00 409.00 L 256.00 409.00 L 256.00 410.00 L 256.00 412.00 L 257.00 414.00" stroke="#ffffff" stroke-width="3" stroke-linecap="round" stroke-linejoin="round" fill="none" />
  <path d="M 272.00 403.00 L 271.00 403.00 L 271.00 407.00 L 271.00 414.00 L 272.00 420.00 L 272.00 426.00 L 272.00 432.00 L 272.00 435.00 L 272.00 436.00 L 272.00 435.00 L 273.00 433.00 L 275.00 430.00 L 277.00 428.00 L 279.00 426.00 L 284.00 425.00 L 286.00 424.00 L 288.00 424.00 L 289.00 424.00 L 287.00 426.00 L 286.00 429.00 L 286.00 432.00 L 288.00 434.00 L 292.00 436.00 L 297.00 436.00 L 300.00 435.00 L 302.00 433.00 L 303.00 429.00 L 302.00 425.00 L 299.00 423.00 L 296.00 422.00 L 294.00 423.00 L 292.00 425.00 L 291.00 429.00 L 291.00 431.00 L 293.00 432.00 L 297.00 433.00 L 302.00 434.00 L 304.00 435.00 L 306.00 435.00 L 307.00 435.00 L 308.00 434.00 L 308.00 433.00 L 308.00 430.00 L 310.00 425.00 L 312.00 421.00 L 315.00 419.00 L 316.00 419.00 L 318.00 420.00 L 320.00 422.00 L 322.00 423.00 L 323.00 423.00" stroke="#ffffff" stroke-width="3" stroke-linecap="round" stroke-linejoin="round" fill="none" />
  <path d="M 383.00 429.00 L 384.00 428.00 L 384.00 427.00 L 384.00 426.00 L 382.00 426.00 L 380.00 426.00 L 376.00 427.00 L 371.00 430.00 L 368.00 433.00 L 367.00 436.00 L 370.00 440.00 L 375.00 443.00 L 384.00 445.00 L 388.00 446.00 L 391.00 445.00 L 392.00 443.00" stroke="#ffffff" stroke-width="3" stroke-linecap="round" stroke-linejoin="round" fill="none" />
  <path d="M 393.00 432.00 L 393.00 434.00 L 394.00 436.00 L 396.00 438.00 L 397.00 441.00 L 398.00 443.00 L 397.00 442.00 L 396.00 440.00 L 396.00 435.00 L 397.00 433.00 L 399.00 431.00 L 402.00 430.00 L 405.00 430.00 L 409.00 431.00 L 411.00 432.00 L 412.00 432.00 L 415.00 433.00 L 417.00 433.00 L 419.00 432.00 L 421.00 432.00 L 422.00 432.00 L 422.00 431.00 L 421.00 430.00 L 419.00 430.00 L 417.00 429.00 L 416.00 429.00 L 415.00 431.00 L 415.00 433.00 L 415.00 437.00 L 416.00 440.00 L 419.00 445.00 L 422.00 446.00 L 426.00 446.00 L 434.00 444.00" stroke="#ffffff" stroke-width="3" stroke-linecap="round" stroke-linejoin="round" fill="none" />
  <path d="M 444.00 438.00 L 444.00 437.00 L 444.00 436.00 L 443.00 436.00 L 440.00 434.00 L 437.00 434.00 L 434.00 433.00 L 430.00 435.00 L 428.00 438.00 L 428.00 441.00 L 429.00 443.00 L 430.00 444.00 L 435.00 444.00 L 439.00 443.00 L 442.00 441.00 L 444.00 440.00 L 445.00 440.00 L 446.00 440.00 L 448.00 441.00 L 450.00 441.00 L 452.00 439.00 L 454.00 436.00 L 454.00 433.00 L 452.00 426.00 L 450.00 421.00 L 450.00 418.00 L 450.00 417.00 L 450.00 420.00 L 450.00 426.00 L 453.00 434.00 L 454.00 438.00 L 456.00 441.00 L 458.00 444.00 L 458.00 443.00 L 458.00 442.00 L 458.00 440.00 L 460.00 439.00 L 462.00 437.00 L 465.00 436.00 L 470.00 435.00 L 474.00 434.00 L 477.00 433.00 L 478.00 433.00 L 479.00 432.00 L 479.00 430.00 L 478.00 429.00 L 477.00 429.00 L 474.00 429.00 L 471.00 433.00 L 469.00 436.00 L 468.00 439.00 L 469.00 442.00 L 471.00 444.00 L 477.00 445.00 L 481.00 446.00 L 485.00 445.00 L 486.00 445.00" stroke="#ffffff" stroke-width="3" stroke-linecap="round" stroke-linejoin="round" fill="none" />
  <path d="M 505.00 439.00 L 505.00 438.00 L 502.00 437.00 L 499.00 436.00 L 496.00 436.00 L 493.00 436.00 L 491.00 437.00 L 490.00 440.00 L 489.00 444.00 L 490.00 446.00 L 493.00 447.00 L 500.00 446.00 L 504.00 444.00 L 507.00 441.00 L 508.00 438.00 L 509.00 435.00 L 508.00 429.00 L 507.00 427.00 L 507.00 428.00 L 506.00 433.00 L 505.00 438.00 L 507.00 442.00 L 510.00 445.00 L 515.00 446.00 L 522.00 445.00" stroke="#ffffff" stroke-width="3" stroke-linecap="round" stroke-linejoin="round" fill="none" />
  <path d="M 564.00 431.00 L 564.00 430.00 L 564.00 432.00 L 564.00 438.00 L 565.00 441.00 L 567.00 444.00 L 569.00 445.00 L 572.00 445.00 L 574.00 444.00 L 578.00 441.00 L 579.00 439.00 L 579.00 437.00 L 580.00 437.00 L 580.00 438.00 L 580.00 439.00 L 580.00 441.00 L 581.00 443.00 L 583.00 444.00 L 587.00 444.00 L 589.00 443.00 L 590.00 441.00 L 592.00 438.00 L 593.00 438.00 L 593.00 440.00 L 595.00 442.00 L 600.00 443.00 L 603.00 443.00 L 606.00 441.00 L 607.00 439.00" stroke="#ffffff" stroke-width="3" stroke-linecap="round" stroke-linejoin="round" fill="none" />
  <path d="M 611.00 436.00 L 611.00 437.00 L 611.00 439.00 L 611.00 440.00 L 611.00 443.00 L 612.00 445.00 L 612.00 446.00 L 613.00 446.00" stroke="#ffffff" stroke-width="3" stroke-linecap="round" stroke-linejoin="round" fill="none" />
  <path d="M 627.00 424.00 L 626.00 423.00 L 626.00 422.00 L 626.00 421.00 L 626.00 420.00 L 626.00 419.00 L 626.00 422.00 L 626.00 427.00 L 626.00 436.00 L 626.00 442.00 L 627.00 446.00 L 627.00 449.00 L 628.00 450.00 L 628.00 449.00 L 628.00 446.00 L 628.00 442.00 L 629.00 441.00 L 630.00 440.00 L 631.00 440.00 L 633.00 440.00 L 635.00 440.00 L 637.00 439.00 L 640.00 438.00 L 643.00 435.00 L 644.00 433.00 L 644.00 430.00 L 644.00 426.00 L 643.00 424.00 L 642.00 423.00 L 640.00 426.00 L 638.00 431.00 L 637.00 437.00 L 637.00 442.00 L 639.00 447.00 L 642.00 449.00 L 644.00 450.00 L 647.00 449.00 L 649.00 448.00 L 652.00 446.00 L 655.00 442.00 L 658.00 439.00 L 661.00 437.00 L 661.00 440.00 L 662.00 443.00 L 664.00 446.00 L 666.00 447.00 L 668.00 448.00 L 669.00 448.00 L 670.00 446.00 L 671.00 445.00" stroke="#ffffff" stroke-width="3" stroke-linecap="round" stroke-linejoin="round" fill="none" />
  <path d="M 607.00 427.00 L 608.00 427.00 L 609.00 427.00 L 609.00 426.00 L 610.00 425.00 L 609.00 425.00 L 608.00 425.00" stroke="#ffffff" stroke-width="3" stroke-linecap="round" stroke-linejoin="round" fill="none" />
  <path d="M 722.00 446.00 L 721.00 447.00 L 721.00 446.00 L 723.00 445.00 L 724.00 443.00 L 726.00 437.00 L 727.00 431.00 L 727.00 425.00 L 727.00 419.00 L 726.00 414.00 L 725.00 411.00 L 725.00 413.00 L 725.00 417.00 L 725.00 422.00 L 725.00 429.00 L 725.00 434.00 L 727.00 437.00 L 729.00 440.00 L 731.00 442.00 L 734.00 442.00 L 738.00 442.00 L 741.00 441.00 L 743.00 441.00 L 745.00 440.00 L 746.00 441.00 L 747.00 442.00 L 748.00 443.00 L 750.00 443.00 L 751.00 443.00 L 752.00 442.00 L 752.00 440.00 L 752.00 438.00 L 752.00 437.00 L 751.00 436.00 L 751.00 438.00 L 751.00 440.00 L 752.00 443.00 L 753.00 445.00 L 755.00 446.00 L 758.00 446.00 L 760.00 446.00 L 763.00 445.00 L 764.00 444.00" stroke="#ffffff" stroke-width="3" stroke-linecap="round" stroke-linejoin="round" fill="none" />
  <path d="M 767.00 444.00 L 767.00 443.00 L 768.00 443.00 L 768.00 442.00 L 770.00 440.00 L 771.00 437.00 L 772.00 431.00 L 771.00 426.00 L 770.00 423.00 L 768.00 421.00 L 767.00 424.00 L 767.00 427.00 L 767.00 432.00 L 768.00 436.00 L 771.00 442.00 L 773.00 445.00 L 775.00 446.00 L 777.00 446.00 L 778.00 446.00 L 780.00 445.00 L 782.00 443.00 L 782.00 441.00 L 782.00 440.00 L 782.00 439.00 L 782.00 440.00 L 783.00 441.00 L 784.00 444.00 L 786.00 448.00 L 789.00 452.00 L 790.00 454.00 L 792.00 455.00 L 792.00 454.00 L 791.00 452.00 L 791.00 449.00 L 790.00 445.00 L 790.00 441.00 L 792.00 437.00 L 795.00 436.00 L 797.00 437.00 L 799.00 439.00 L 801.00 443.00 L 800.00 444.00 L 799.00 445.00 L 796.00 446.00 L 794.00 446.00 L 791.00 446.00 L 789.00 445.00 L 787.00 444.00" stroke="#ffffff" stroke-width="3" stroke-linecap="round" stroke-linejoin="round" fill="none" />
  <path d="M 164.00 477.00 L 163.00 477.00 L 162.00 477.00 L 160.00 478.00 L 159.00 479.00 L 158.00 482.00 L 158.00 488.00 L 161.00 492.00 L 163.00 495.00 L 165.00 496.00 L 167.00 496.00 L 170.00 494.00 L 171.00 492.00 L 171.00 489.00 L 170.00 487.00 L 166.00 484.00 L 163.00 484.00 L 161.00 485.00 L 160.00 488.00 L 160.00 492.00 L 161.00 493.00" stroke="#ffffff" stroke-width="3" stroke-linecap="round" stroke-linejoin="round" fill="none" />
  <path d="M 187.00 471.00 L 187.00 472.00 L 186.00 476.00 L 185.00 483.00 L 186.00 490.00 L 186.00 496.00 L 185.00 505.00 L 185.00 510.00 L 184.00 513.00 L 184.00 515.00 L 183.00 513.00 L 181.00 511.00 L 180.00 508.00 L 179.00 504.00 L 179.00 499.00 L 180.00 498.00 L 183.00 498.00 L 188.00 497.00 L 194.00 497.00 L 205.00 495.00" stroke="#ffffff" stroke-width="3" stroke-linecap="round" stroke-linejoin="round" fill="none" />
  <path d="M 247.00 481.00 L 246.00 481.00 L 246.00 482.00 L 246.00 484.00 L 246.00 489.00 L 246.00 493.00 L 245.00 497.00 L 244.00 501.00 L 243.00 505.00 L 243.00 507.00 L 245.00 508.00 L 250.00 509.00 L 253.00 509.00 L 256.00 509.00 L 258.00 509.00 L 259.00 509.00 L 261.00 508.00" stroke="#ffffff" stroke-width="3" stroke-linecap="round" stroke-linejoin="round" fill="none" />
  <path d="M 267.00 487.00 L 267.00 488.00 L 269.00 491.00 L 270.00 495.00 L 270.00 499.00 L 270.00 502.00 L 270.00 505.00 L 270.00 506.00 L 271.00 507.00 L 272.00 507.00 L 275.00 507.00 L 278.00 508.00 L 284.00 507.00 L 287.00 507.00" stroke="#ffffff" stroke-width="3" stroke-linecap="round" stroke-linejoin="round" fill="none" />
  <path d="M 293.00 485.00 L 293.00 486.00 L 293.00 487.00 L 293.00 488.00 L 292.00 492.00 L 292.00 496.00 L 293.00 502.00 L 295.00 505.00 L 296.00 507.00 L 297.00 508.00 L 297.00 506.00 L 297.00 505.00 L 297.00 502.00 L 297.00 499.00 L 297.00 493.00 L 297.00 491.00 L 298.00 492.00 L 299.00 494.00 L 301.00 496.00 L 302.00 498.00 L 303.00 498.00 L 304.00 499.00 L 306.00 499.00 L 307.00 499.00 L 309.00 497.00 L 311.00 494.00 L 313.00 492.00 L 314.00 492.00 L 315.00 493.00 L 317.00 496.00 L 319.00 500.00 L 322.00 501.00 L 324.00 502.00 L 326.00 502.00 L 328.00 501.00 L 331.00 499.00 L 332.00 497.00 L 334.00 495.00 L 335.00 493.00 L 335.00 494.00 L 336.00 495.00 L 337.00 496.00" stroke="#ffffff" stroke-width="3" stroke-linecap="round" stroke-linejoin="round" fill="none" />
  <path d="M 340.00 496.00 L 339.00 496.00 L 338.00 496.00 L 336.00 496.00 L 335.00 496.00 L 334.00 497.00 L 334.00 499.00 L 336.00 500.00 L 338.00 501.00 L 340.00 502.00 L 341.00 505.00 L 342.00 507.00 L 342.00 508.00" stroke="#ffffff" stroke-width="3" stroke-linecap="round" stroke-linejoin="round" fill="none" />
  <path d="M 412.00 491.00 L 413.00 490.00 L 413.00 489.00 L 414.00 491.00 L 415.00 496.00 L 416.00 504.00 L 417.00 509.00 L 418.00 512.00 L 419.00 513.00 L 419.00 514.00 L 419.00 513.00 L 419.00 512.00 L 418.00 510.00 L 418.00 508.00 L 419.00 507.00 L 421.00 506.00 L 423.00 506.00 L 425.00 505.00 L 430.00 505.00 L 433.00 505.00 L 435.00 504.00 L 436.00 504.00 L 436.00 505.00 L 435.00 508.00 L 434.00 513.00 L 435.00 515.00 L 438.00 516.00 L 441.00 516.00 L 445.00 516.00 L 449.00 514.00 L 451.00 513.00 L 451.00 511.00 L 449.00 508.00 L 442.00 505.00 L 438.00 504.00 L 436.00 505.00" stroke="#ffffff" stroke-width="3" stroke-linecap="round" stroke-linejoin="round" fill="none" />
  <path d="M 510.00 518.00 L 510.00 517.00 L 510.00 516.00 L 511.00 513.00 L 511.00 510.00 L 510.00 507.00 L 508.00 501.00 L 507.00 498.00 L 506.00 497.00 L 505.00 498.00 L 505.00 505.00 L 506.00 511.00 L 509.00 516.00 L 511.00 519.00 L 513.00 522.00 L 514.00 523.00 L 515.00 523.00 L 518.00 522.00 L 524.00 521.00 L 527.00 520.00 L 529.00 520.00 L 530.00 519.00 L 531.00 519.00 L 533.00 519.00 L 535.00 519.00 L 537.00 519.00 L 538.00 519.00 L 539.00 518.00 L 539.00 517.00 L 538.00 516.00 L 536.00 515.00 L 535.00 514.00 L 534.00 513.00 L 534.00 516.00 L 535.00 520.00 L 538.00 523.00 L 540.00 526.00 L 544.00 527.00 L 548.00 527.00" stroke="#ffffff" stroke-width="3" stroke-linecap="round" stroke-linejoin="round" fill="none" />
  <path d="M 553.00 513.00 L 553.00 514.00 L 554.00 519.00 L 556.00 523.00 L 558.00 528.00 L 559.00 532.00 L 561.00 537.00 L 561.00 538.00 L 562.00 539.00 L 562.00 538.00 L 561.00 534.00 L 560.00 528.00 L 560.00 522.00 L 562.00 517.00 L 565.00 515.00 L 568.00 515.00 L 569.00 518.00 L 570.00 520.00 L 570.00 523.00 L 569.00 524.00 L 566.00 524.00 L 563.00 525.00 L 560.00 524.00" stroke="#ffffff" stroke-width="3" stroke-linecap="round" stroke-linejoin="round" fill="none" />
  <path d="M 546.00 522.00 L 547.00 521.00 L 548.00 520.00 L 548.00 519.00 L 549.00 517.00 L 549.00 515.00 L 549.00 513.00 L 548.00 508.00 L 547.00 506.00 L 547.00 505.00 L 547.00 508.00 L 547.00 513.00 L 548.00 518.00 L 549.00 522.00 L 550.00 524.00 L 551.00 526.00 L 553.00 527.00" stroke="#ffffff" stroke-width="3" stroke-linecap="round" stroke-linejoin="round" fill="none" />
  <path d="M 588.00 522.00 L 588.00 521.00 L 591.00 521.00 L 595.00 521.00 L 598.00 520.00 L 601.00 520.00" stroke="#ffffff" stroke-width="3" stroke-linecap="round" stroke-linejoin="round" fill="none" />
  <path d="M 614.00 521.00 L 615.00 520.00 L 616.00 519.00 L 617.00 517.00 L 618.00 515.00 L 620.00 514.00 L 622.00 514.00 L 624.00 515.00 L 627.00 518.00 L 629.00 521.00 L 631.00 522.00 L 632.00 523.00 L 633.00 523.00 L 634.00 522.00 L 637.00 520.00 L 640.00 519.00 L 643.00 518.00 L 645.00 518.00 L 647.00 518.00 L 648.00 519.00 L 649.00 519.00 L 650.00 520.00 L 651.00 520.00 L 652.00 520.00 L 655.00 520.00 L 657.00 520.00 L 658.00 520.00 L 659.00 520.00 L 660.00 521.00 L 663.00 521.00 L 665.00 521.00 L 668.00 522.00 L 670.00 521.00 L 672.00 521.00 L 672.00 520.00 L 673.00 518.00 L 673.00 517.00 L 673.00 516.00 L 673.00 519.00 L 674.00 522.00 L 677.00 524.00 L 680.00 525.00 L 686.00 526.00 L 689.00 526.00" stroke="#ffffff" stroke-width="3" stroke-linecap="round" stroke-linejoin="round" fill="none" />
  <path d="M 150.00 546.00 L 150.00 547.00 L 150.00 548.00 L 150.00 549.00 L 150.00 554.00 L 151.00 562.00 L 152.00 569.00 L 155.00 576.00 L 156.00 579.00 L 158.00 580.00 L 159.00 580.00" stroke="#ffffff" stroke-width="3" stroke-linecap="round" stroke-linejoin="round" fill="none" />
  <path d="M 172.00 555.00 L 171.00 558.00 L 169.00 564.00 L 168.00 569.00 L 166.00 574.00 L 163.00 579.00 L 162.00 580.00 L 160.00 580.00 L 159.00 578.00 L 160.00 577.00 L 161.00 577.00 L 163.00 577.00 L 168.00 578.00 L 172.00 579.00 L 175.00 580.00 L 177.00 581.00 L 178.00 581.00 L 181.00 582.00 L 184.00 582.00 L 187.00 582.00 L 189.00 582.00 L 190.00 581.00 L 190.00 580.00 L 190.00 579.00 L 189.00 578.00 L 187.00 577.00 L 186.00 577.00 L 186.00 578.00 L 187.00 581.00 L 189.00 584.00 L 190.00 585.00 L 192.00 586.00 L 195.00 586.00" stroke="#ffffff" stroke-width="3" stroke-linecap="round" stroke-linejoin="round" fill="none" />
  <path d="M 202.00 583.00 L 203.00 583.00 L 204.00 583.00 L 206.00 582.00 L 209.00 581.00 L 210.00 579.00 L 210.00 578.00 L 210.00 576.00 L 208.00 575.00 L 207.00 575.00 L 205.00 576.00 L 204.00 580.00 L 205.00 582.00 L 206.00 584.00 L 209.00 585.00 L 210.00 586.00 L 212.00 585.00 L 213.00 584.00" stroke="#ffffff" stroke-width="3" stroke-linecap="round" stroke-linejoin="round" fill="none" />
  <path d="M 222.00 577.00 L 222.00 578.00 L 222.00 580.00 L 221.00 583.00 L 221.00 587.00 L 222.00 591.00 L 223.00 596.00 L 223.00 599.00 L 223.00 597.00 L 223.00 594.00 L 224.00 590.00 L 224.00 585.00 L 227.00 579.00 L 233.00 573.00 L 235.00 573.00 L 237.00 574.00 L 237.00 576.00 L 233.00 580.00 L 229.00 582.00 L 226.00 583.00 L 224.00 584.00" stroke="#ffffff" stroke-width="3" stroke-linecap="round" stroke-linejoin="round" fill="none" />
  <path d="M 281.00 584.00 L 281.00 583.00 L 280.00 580.00 L 280.00 578.00 L 281.00 576.00 L 284.00 579.00 L 285.00 582.00 L 286.00 584.00 L 288.00 585.00 L 289.00 585.00 L 291.00 585.00 L 293.00 584.00 L 295.00 582.00 L 298.00 580.00 L 299.00 579.00 L 301.00 580.00 L 302.00 582.00 L 303.00 583.00 L 304.00 584.00 L 305.00 584.00 L 306.00 584.00 L 307.00 584.00 L 310.00 583.00 L 311.00 583.00 L 312.00 583.00 L 313.00 584.00 L 316.00 584.00 L 317.00 584.00 L 319.00 584.00 L 322.00 583.00 L 326.00 582.00 L 328.00 582.00 L 329.00 581.00 L 331.00 581.00" stroke="#ffffff" stroke-width="3" stroke-linecap="round" stroke-linejoin="round" fill="none" />
  <path d="M 340.00 572.00 L 340.00 573.00 L 339.00 576.00 L 339.00 579.00 L 340.00 581.00 L 343.00 583.00 L 345.00 583.00 L 348.00 583.00 L 350.00 582.00 L 355.00 580.00 L 357.00 579.00 L 360.00 579.00 L 362.00 581.00 L 363.00 584.00 L 365.00 589.00 L 365.00 592.00 L 365.00 595.00 L 364.00 598.00 L 362.00 599.00 L 359.00 599.00 L 358.00 598.00 L 356.00 595.00 L 356.00 592.00 L 358.00 584.00 L 361.00 580.00 L 365.00 578.00 L 366.00 577.00" stroke="#ffffff" stroke-width="3" stroke-linecap="round" stroke-linejoin="round" fill="none" />
  <path d="M 413.00 584.00 L 412.00 583.00 L 411.00 582.00 L 410.00 580.00 L 411.00 578.00 L 414.00 575.00 L 418.00 574.00 L 420.00 575.00 L 422.00 576.00 L 424.00 578.00 L 426.00 580.00 L 427.00 580.00 L 429.00 580.00 L 432.00 580.00 L 434.00 579.00 L 436.00 579.00 L 437.00 580.00 L 438.00 580.00 L 439.00 581.00 L 440.00 582.00 L 442.00 583.00 L 445.00 584.00 L 448.00 585.00 L 452.00 585.00 L 457.00 584.00 L 460.00 582.00 L 464.00 580.00 L 464.00 579.00 L 462.00 578.00 L 459.00 577.00 L 456.00 576.00 L 455.00 577.00 L 454.00 578.00 L 453.00 581.00 L 453.00 584.00 L 454.00 584.00 L 456.00 585.00 L 458.00 585.00 L 459.00 584.00 L 460.00 581.00 L 460.00 579.00 L 460.00 578.00 L 461.00 577.00" stroke="#ffffff" stroke-width="3" stroke-linecap="round" stroke-linejoin="round" fill="none" />
  <path d="M 481.00 567.00 L 480.00 571.00 L 480.00 576.00 L 480.00 580.00 L 481.00 583.00 L 483.00 587.00 L 483.00 589.00 L 483.00 590.00 L 483.00 591.00 L 482.00 591.00 L 482.00 589.00 L 482.00 588.00 L 484.00 586.00 L 487.00 585.00 L 489.00 584.00 L 492.00 583.00 L 495.00 582.00 L 497.00 581.00 L 498.00 580.00 L 496.00 579.00 L 493.00 579.00 L 492.00 579.00 L 491.00 581.00 L 489.00 586.00 L 489.00 588.00 L 490.00 589.00 L 491.00 590.00 L 494.00 591.00 L 498.00 590.00 L 502.00 590.00 L 504.00 590.00 L 506.00 589.00 L 507.00 588.00 L 509.00 586.00 L 510.00 584.00 L 511.00 581.00 L 512.00 580.00 L 512.00 579.00 L 514.00 581.00 L 515.00 583.00 L 516.00 587.00 L 517.00 589.00 L 518.00 591.00 L 518.00 592.00 L 517.00 591.00" stroke="#ffffff" stroke-width="3" stroke-linecap="round" stroke-linejoin="round" fill="none" />
  <path d="M 580.00 580.00 L 580.00 579.00 L 580.00 578.00 L 579.00 578.00 L 578.00 580.00 L 576.00 587.00 L 576.00 589.00 L 577.00 591.00 L 583.00 594.00 L 587.00 594.00 L 592.00 593.00 L 598.00 590.00 L 599.00 587.00 L 597.00 584.00 L 592.00 582.00 L 585.00 579.00 L 579.00 579.00 L 573.00 582.00 L 573.00 587.00 L 575.00 591.00 L 578.00 593.00" stroke="#ffffff" stroke-width="3" stroke-linecap="round" stroke-linejoin="round" fill="none" />
  <path d="M 597.00 595.00 L 596.00 595.00 L 595.00 594.00 L 596.00 593.00 L 597.00 591.00 L 600.00 587.00 L 602.00 584.00 L 603.00 582.00 L 604.00 581.00 L 605.00 582.00 L 606.00 585.00 L 607.00 588.00 L 608.00 590.00 L 608.00 591.00 L 609.00 592.00 L 609.00 591.00 L 611.00 591.00 L 612.00 589.00 L 613.00 589.00 L 614.00 589.00 L 615.00 589.00 L 616.00 590.00 L 618.00 591.00 L 619.00 591.00 L 621.00 591.00 L 622.00 591.00 L 623.00 591.00" stroke="#ffffff" stroke-width="3" stroke-linecap="round" stroke-linejoin="round" fill="none" />
  <path d="M 632.00 590.00 L 632.00 589.00 L 633.00 589.00 L 633.00 588.00 L 635.00 587.00 L 636.00 584.00 L 638.00 581.00 L 639.00 577.00 L 641.00 572.00 L 641.00 571.00 L 640.00 572.00 L 639.00 574.00 L 637.00 580.00 L 637.00 584.00 L 638.00 587.00 L 641.00 590.00 L 643.00 592.00 L 647.00 593.00 L 649.00 593.00 L 652.00 592.00 L 653.00 591.00 L 655.00 588.00 L 656.00 588.00 L 658.00 590.00 L 660.00 591.00 L 662.00 592.00 L 665.00 592.00 L 666.00 591.00 L 667.00 590.00" stroke="#ffffff" stroke-width="3" stroke-linecap="round" stroke-linejoin="round" fill="none" />
  <path d="M 660.00 575.00 L 659.00 575.00 L 660.00 575.00 L 661.00 577.00 L 662.00 577.00 L 663.00 577.00" stroke="#ffffff" stroke-width="3" stroke-linecap="round" stroke-linejoin="round" fill="none" />
  <path d="M 674.00 592.00 L 674.00 591.00 L 674.00 590.00 L 674.00 588.00 L 676.00 586.00 L 678.00 584.00 L 681.00 583.00 L 682.00 584.00 L 683.00 586.00 L 683.00 588.00 L 684.00 591.00 L 685.00 592.00 L 687.00 591.00 L 688.00 591.00 L 690.00 589.00 L 691.00 588.00 L 692.00 587.00 L 693.00 587.00 L 695.00 588.00 L 696.00 589.00 L 698.00 590.00 L 701.00 591.00 L 704.00 592.00 L 707.00 593.00 L 709.00 593.00 L 712.00 593.00 L 714.00 591.00 L 716.00 590.00 L 716.00 588.00 L 716.00 586.00 L 716.00 583.00 L 714.00 582.00 L 713.00 582.00 L 712.00 584.00 L 711.00 588.00 L 711.00 590.00 L 713.00 592.00 L 717.00 594.00 L 722.00 595.00 L 728.00 595.00 L 735.00 595.00 L 736.00 594.00" stroke="#ffffff" stroke-width="3" stroke-linecap="round" stroke-linejoin="round" fill="none" />
</svg>